<?xml version="1.0" encoding="UTF-8" standalone="no"?>
<svg
   xmlns:dc="http://purl.org/dc/elements/1.1/"
   xmlns:cc="http://creativecommons.org/ns#"
   xmlns:rdf="http://www.w3.org/1999/02/22-rdf-syntax-ns#"
   xmlns:svg="http://www.w3.org/2000/svg"
   xmlns="http://www.w3.org/2000/svg"
   xmlns:sodipodi="http://sodipodi.sourceforge.net/DTD/sodipodi-0.dtd"
   xmlns:inkscape="http://www.inkscape.org/namespaces/inkscape"
   id="Layer_1"
   enable-background="new 0 0 512.032 512.032"
   height="96"
   viewBox="0 0 96.006 96.006"
   width="96"
   version="1.1"
   sodipodi:docname="beer.svg"
   inkscape:version="1.0.2-2 (e86c870879, 2021-01-15)">
  <metadata
     id="metadata27">
    <rdf:RDF>
      <cc:Work
         rdf:about="">
        <dc:format>image/svg+xml</dc:format>
        <dc:type
           rdf:resource="http://purl.org/dc/dcmitype/StillImage" />
        <dc:title></dc:title>
      </cc:Work>
    </rdf:RDF>
  </metadata>
  <defs
     id="defs25">
    <inkscape:perspective
       sodipodi:type="inkscape:persp3d"
       inkscape:vp_x="0 : 48.003 : 1"
       inkscape:vp_y="0 : 1000 : 0"
       inkscape:vp_z="96.006 : 48.003 : 1"
       inkscape:persp3d-origin="48.003 : 32.002 : 1"
       id="perspective29" />
  </defs>
  <sodipodi:namedview
     pagecolor="#ffffff"
     bordercolor="#666666"
     borderopacity="1"
     objecttolerance="10"
     gridtolerance="10"
     guidetolerance="10"
     inkscape:pageopacity="0"
     inkscape:pageshadow="2"
     inkscape:window-width="1366"
     inkscape:window-height="705"
     id="namedview23"
     showgrid="false"
     inkscape:zoom="2.96"
     inkscape:cx="82.885135"
     inkscape:cy="64.584699"
     inkscape:window-x="-8"
     inkscape:window-y="-8"
     inkscape:window-maximized="1"
     inkscape:current-layer="g20" />
     <link xmlns="http://www.w3.org/1999/xhtml" rel="stylesheet" href="svg.css" type="text/css"/>
  <g
     id="g20"
     transform="matrix(0.18750014,0,0,0.18750677,8.5285453e-5,-0.00178131)">
    <path
       d="m 168.753,331.701 c -14.461,-3.875 -25.654,-14.18 -30.709,-28.271 -1.473,-4.105 -4.44,-7.029 -8.144,-8.021 -3.705,-0.99 -7.737,0.056 -11.066,2.875 -11.424,9.675 -26.269,13.004 -40.73,9.128 l -42.607,-11.283 -17.454,65.142 42.555,11.751 c 14.428,3.889 25.593,14.183 30.641,28.253 1.473,4.105 4.441,7.03 8.145,8.022 3.706,0.991 7.737,-0.056 11.064,-2.875 11.408,-9.663 26.228,-12.995 40.667,-9.146 l 44.662,11.602 17.692,-66.027 -44.461,-11.084 c -0.085,-0.021 -0.17,-0.043 -0.255,-0.066 z"
       id="path2"
       style="fill:#ffffff;fill-opacity:1" />
    <path
       d="m 143.413,426.27 c -5.032,-1.349 -9.6,-0.325 -13.575,3.043 -10.783,9.134 -25.071,12.484 -38.219,8.96 -13.147,-3.522 -23.846,-13.567 -28.618,-26.869 -1.761,-4.906 -5.204,-8.076 -10.236,-9.425 -0.037,-0.01 -0.074,-0.02 -0.11,-0.03 L 10.278,390.25 2.001,421.139 c -4.023,15.01 -1.937,30.728 5.874,44.256 7.811,13.528 20.379,23.193 35.389,27.215 l 64.996,17.416 c 5.04,1.351 10.103,1.995 15.09,1.995 25.762,-10e-4 49.402,-17.218 56.381,-43.259 l 8.281,-30.906 -44.488,-11.556 c -0.037,-0.01 -0.074,-0.02 -0.111,-0.03 z"
       id="path4"
       style="fill:#ffffff;fill-opacity:1" />
    <path
       d="M 223.353,76.027 160.588,59.21 c -7.992,-2.144 -16.227,2.604 -18.371,10.606 -1.093,4.081 -0.386,8.215 1.623,11.575 l -38.906,108.93 c -24.545,1.523 -46.035,18.471 -52.648,43.15 l -9.024,33.679 42.565,11.272 c 5.075,1.359 9.644,0.336 13.618,-3.032 10.785,-9.133 25.07,-12.483 38.221,-8.96 13.147,3.522 23.846,13.567 28.617,26.87 1.746,4.868 5.152,8.027 10.125,9.393 l 44.827,11.175 8.782,-32.774 c 6.612,-24.679 -3.525,-50.102 -24.021,-63.693 l 20.771,-113.79 c 3.42,-1.906 6.1,-5.133 7.193,-9.213 2.144,-8.002 -2.606,-16.227 -10.607,-18.371 z"
       id="path6"
       style="fill:#ffffff;fill-opacity:1" />
    <path
       d="m 401.584,406.422 c 3.327,2.819 7.359,3.866 11.064,2.875 3.703,-0.992 6.672,-3.917 8.146,-8.023 5.055,-14.091 16.248,-24.396 30.709,-28.271 0.102,-0.027 0.203,-0.053 0.305,-0.079 l 42.508,-10.438 -18.338,-68.439 -41.385,13.169 c -0.22,0.07 -0.441,0.135 -0.665,0.195 -14.459,3.874 -29.307,0.548 -40.731,-9.129 -3.328,-2.818 -7.359,-3.866 -11.064,-2.874 -3.704,0.992 -6.672,3.916 -8.145,8.021 -5.055,14.092 -16.248,24.396 -30.709,28.271 -0.377,0.101 -0.758,0.188 -1.142,0.259 l -44.286,8.231 18.27,68.182 L 361,397.254 c 14.414,-3.814 29.198,-0.476 40.584,9.168 z"
       id="path8"
       style="fill:#ffffff;fill-opacity:1" />
    <path
       d="m 345.749,293.301 c 4.771,-13.302 15.47,-23.347 28.618,-26.87 13.146,-3.523 27.436,-0.174 38.219,8.959 3.9,3.303 8.37,4.352 13.289,3.118 l 42.33,-13.469 -8.458,-31.568 c -6.613,-24.681 -28.102,-41.629 -52.648,-43.15 L 368.193,81.391 c 2.009,-3.361 2.717,-7.495 1.623,-11.575 C 367.671,61.814 359.444,57.064 351.445,59.21 L 288.68,76.027 c -8.002,2.144 -12.751,10.369 -10.607,18.371 1.094,4.081 3.773,7.308 7.193,9.214 l 20.771,113.789 c -20.495,13.592 -30.633,39.015 -24.021,63.693 l 8.047,30.03 45.931,-8.537 c 4.772,-1.417 8.053,-4.54 9.755,-9.286 z"
       id="path10"
       style="fill:#ffffff;fill-opacity:1" />
    <path
       d="m 510.031,421.139 -7.949,-29.668 -42.945,10.545 c -4.962,1.368 -8.361,4.526 -10.105,9.388 -4.773,13.303 -15.472,23.347 -28.619,26.87 -13.146,3.524 -27.436,0.173 -38.218,-8.96 -3.978,-3.368 -8.545,-4.391 -13.576,-3.043 -0.092,0.024 -0.184,0.048 -0.275,0.071 l -44.457,11.015 8.416,31.407 c 6.978,26.042 30.616,43.26 56.381,43.259 4.984,0 10.051,-0.645 15.09,-1.995 l 64.994,-17.416 c 15.011,-4.021 27.578,-13.687 35.39,-27.215 7.809,-13.531 9.896,-29.248 5.873,-44.258 z"
       id="path12"
       style="fill:#ffffff;fill-opacity:1" />
    <path
       d="m 256.06,0.011 c -8.284,0 -15,6.716 -15,15 v 13.874 c 0,8.284 6.716,15 15,15 8.284,0 15,-6.716 15,-15 V 15.011 c 0,-8.285 -6.716,-15 -15,-15 z"
       id="path14"
       style="fill:#ffffff;fill-opacity:1" />
    <path
       d="m 190.226,42.588 c 2.929,2.929 6.768,4.394 10.606,4.394 3.838,0 7.678,-1.464 10.606,-4.394 5.858,-5.858 5.858,-15.355 0,-21.213 L 194.468,4.404 c -5.857,-5.858 -15.355,-5.858 -21.213,0 -5.858,5.858 -5.858,15.355 0,21.213 z"
       id="path16"
       style="fill:#ffffff;fill-opacity:1" />
    <path
       d="m 311.287,46.981 c 3.839,0 7.678,-1.464 10.606,-4.394 l 16.971,-16.971 c 5.858,-5.858 5.858,-15.355 0,-21.213 -5.857,-5.858 -15.355,-5.858 -21.213,0 L 300.68,21.374 c -5.858,5.858 -5.858,15.355 0,21.213 2.929,2.93 6.768,4.394 10.607,4.394 z"
       id="path18"
       style="fill:#ffffff;fill-opacity:1" />
  </g>
</svg>
