<?xml version="1.0" encoding="UTF-8" standalone="no"?>
<svg
   xmlns:dc="http://purl.org/dc/elements/1.1/"
   xmlns:cc="http://creativecommons.org/ns#"
   xmlns:rdf="http://www.w3.org/1999/02/22-rdf-syntax-ns#"
   xmlns:svg="http://www.w3.org/2000/svg"
   xmlns="http://www.w3.org/2000/svg"
   xmlns:sodipodi="http://sodipodi.sourceforge.net/DTD/sodipodi-0.dtd"
   xmlns:inkscape="http://www.inkscape.org/namespaces/inkscape"
   id="Capa_1"
   enable-background="new 0 0 511.979 511.979"
   height="96"
   viewBox="0 0 95.996062 95.996062"
   width="96"
   version="1.1"
   sodipodi:docname="coffee-cup.svg"
   inkscape:version="1.0.2-2 (e86c870879, 2021-01-15)">
  <metadata
     id="metadata19">
    <rdf:RDF>
      <cc:Work
         rdf:about="">
        <dc:format>image/svg+xml</dc:format>
        <dc:type
           rdf:resource="http://purl.org/dc/dcmitype/StillImage" />
        <dc:title></dc:title>
      </cc:Work>
    </rdf:RDF>
  </metadata>
  <defs
     id="defs17" />
  <sodipodi:namedview
     pagecolor="#ffffff"
     bordercolor="#666666"
     borderopacity="1"
     objecttolerance="10"
     gridtolerance="10"
     guidetolerance="10"
     inkscape:pageopacity="0"
     inkscape:pageshadow="2"
     inkscape:window-width="1366"
     inkscape:window-height="705"
     id="namedview15"
     showgrid="false"
     inkscape:zoom="2.7544578"
     inkscape:cx="64.23384"
     inkscape:cy="68.145765"
     inkscape:window-x="-8"
     inkscape:window-y="-8"
     inkscape:window-maximized="1"
     inkscape:current-layer="g12" />
   <link xmlns="http://www.w3.org/1999/xhtml" rel="stylesheet" href="svg.css" type="text/css"/>
  <g
     id="g12"
     transform="matrix(0.19370691,0,0,0.1875,-0.83893491,0)">
    <path
       d="m 392.667,206.311 4.673,-50.395 H 109.865 l 4.65,50.395 z"
       id="path2"
       style="fill:#ffffff;fill-opacity:1" />
    <path
       d="m 177.782,511.979 h 0.019 l 151.495,-0.065 c 19.974,-0.008 36.426,-15.012 38.271,-34.9 l 5.762,-62.143 H 133.758 l 5.738,62.19 c 1.837,19.908 18.296,34.918 38.286,34.918 z"
       id="path4"
       style="fill:#ffffff;fill-opacity:1" />
    <path
       d="M 397.089,7.293 C 393.989,3.966 388.893,0 382.223,0 c -0.002,0 -0.004,0 -0.007,0 L 125.092,0.103 c -6.679,0.003 -11.783,3.979 -14.891,7.314 -7.704,8.271 -11.744,21.292 -10.822,34.855 l 0.273,2.956 h 307.952 l 0.287,-3.099 C 408.819,28.567 404.787,15.554 397.089,7.293 Z"
       id="path6"
       style="fill:#ffffff;fill-opacity:1" />
    <path
       d="M 426.905,75.228 H 85.074 c -12.499,0 -22.668,10.168 -22.668,22.667 v 5.354 c 0,12.499 10.169,22.667 22.668,22.667 h 341.831 c 12.499,0 22.668,-10.168 22.668,-22.667 v -5.354 c 0,-12.499 -10.169,-22.667 -22.668,-22.667 z"
       id="path8"
       style="fill-opacity:1;fill:#ffffff" />
    <path
       d="M 389.885,236.311 H 117.283 L 130.99,384.87 h 245.119 z"
       id="path10"
       style="fill:#ffffff;fill-opacity:1" />
  </g>
</svg>
