<?xml version="1.0" encoding="UTF-8" standalone="no"?>
<svg
   xmlns:dc="http://purl.org/dc/elements/1.1/"
   xmlns:cc="http://creativecommons.org/ns#"
   xmlns:rdf="http://www.w3.org/1999/02/22-rdf-syntax-ns#"
   xmlns:svg="http://www.w3.org/2000/svg"
   xmlns="http://www.w3.org/2000/svg"
   xmlns:sodipodi="http://sodipodi.sourceforge.net/DTD/sodipodi-0.dtd"
   xmlns:inkscape="http://www.inkscape.org/namespaces/inkscape"
   version="1.1"
   id="Capa_1"
   x="0px"
   y="0px"
   width="200"
   height="20.242001"
   viewBox="0 0 200 20.242"
   xml:space="preserve"
   sodipodi:docname="drawing.svg"
   inkscape:version="1.0.2-2 (e86c870879, 2021-01-15)"><metadata
   id="metadata41"><rdf:RDF><cc:Work
       rdf:about=""><dc:format>image/svg+xml</dc:format><dc:type
         rdf:resource="http://purl.org/dc/dcmitype/StillImage" /><dc:title></dc:title></cc:Work></rdf:RDF></metadata><defs
   id="defs39" /><sodipodi:namedview
   pagecolor="#ffffff"
   bordercolor="#666666"
   borderopacity="1"
   objecttolerance="10"
   gridtolerance="10"
   guidetolerance="10"
   inkscape:pageopacity="0"
   inkscape:pageshadow="2"
   inkscape:window-width="1366"
   inkscape:window-height="705"
   id="namedview37"
   showgrid="false"
   inkscape:zoom="3.8161049"
   inkscape:cx="137.78051"
   inkscape:cy="31.337949"
   inkscape:window-x="-8"
   inkscape:window-y="-8"
   inkscape:window-maximized="1"
   inkscape:current-layer="g4" />
<g
   id="g4">
	<path
   d="M 16.153,3.024 H 9.782 L 9.693,2.325 C 9.634,1.672 9.126,0.401 7.633,0.265 6.188,0.134 3.463,0.006 3.347,0 L 3.298,1.054 C 3.326,1.055 6.116,1.187 7.538,1.316 8.506,1.404 8.632,2.32 8.645,2.439 L 8.719,3.024 H 6.572 5.781 v 0.791 15.636 0.791 h 0.791 9.582 0.791 V 19.451 3.815 3.024 Z m 0,16.427 H 6.572 V 3.815 H 8.819 L 9.364,8.122 H 7.1 v 10.801 h 8.526 V 8.123 H 10.428 L 9.882,3.815 h 6.271 z m -5.207,-6.362 c 0.276,0.099 0.42,0.403 0.322,0.679 l -0.603,1.69 c -0.099,0.276 -0.403,0.421 -0.679,0.322 L 8.296,15.177 C 8.019,15.078 7.875,14.775 7.974,14.498 l 0.602,-1.69 c 0.099,-0.276 0.403,-0.42 0.679,-0.322 z m 3.789,-2.536 -0.603,1.69 c -0.099,0.276 -0.403,0.421 -0.679,0.321 l -1.69,-0.602 C 11.487,11.863 11.342,11.56 11.442,11.283 l 0.602,-1.69 c 0.1,-0.277 0.402,-0.421 0.679,-0.322 l 1.69,0.602 c 0.275,0.1 0.42,0.404 0.322,0.68 z m 0.256,6.317 c 0.102,0.274 -0.039,0.581 -0.314,0.683 l -1.684,0.622 c -0.274,0.103 -0.58,-0.039 -0.682,-0.313 l -0.623,-1.684 c -0.102,-0.275 0.039,-0.58 0.314,-0.683 l 1.684,-0.622 c 0.274,-0.102 0.58,0.039 0.682,0.314 z"
   id="path2"
   style="fill:#ffffff;fill-opacity:1" />
<text
   xml:space="preserve"
   style="font-size:18.8602px;line-height:1.25;font-family:sans-serif;fill:#ffffff;fill-opacity:1;stroke-width:0.884075"
   x="28.133451"
   y="14.384516"
   id="text868"
   transform="scale(0.88407557,1.131125)"><tspan
     sodipodi:role="line"
     id="tspan866"
     x="28.133451"
     y="14.384516"
     style="font-style:italic;font-variant:normal;font-weight:bold;font-stretch:normal;font-size:18.8602px;font-family:'Courier New';-inkscape-font-specification:'Courier New Bold Italic';fill:#ffffff;fill-opacity:1;stroke-width:0.884075">Drinks in general</tspan></text></g>
<g
   id="g6">
</g>
<g
   id="g8">
</g>
<g
   id="g10">
</g>
<g
   id="g12">
</g>
<g
   id="g14">
</g>
<g
   id="g16">
</g>
<g
   id="g18">
</g>
<g
   id="g20">
</g>
<g
   id="g22">
</g>
<g
   id="g24">
</g>
<g
   id="g26">
</g>
<g
   id="g28">
</g>
<g
   id="g30">
</g>
<g
   id="g32">
</g>
<g
   id="g34">
</g>
</svg>
