<?xml version="1.0" encoding="UTF-8" standalone="no"?>
<svg
   xmlns:dc="http://purl.org/dc/elements/1.1/"
   xmlns:cc="http://creativecommons.org/ns#"
   xmlns:rdf="http://www.w3.org/1999/02/22-rdf-syntax-ns#"
   xmlns:svg="http://www.w3.org/2000/svg"
   xmlns="http://www.w3.org/2000/svg"
   xmlns:sodipodi="http://sodipodi.sourceforge.net/DTD/sodipodi-0.dtd"
   xmlns:inkscape="http://www.inkscape.org/namespaces/inkscape"
   version="1.1"
   id="Capa_1"
   x="0px"
   y="0px"
   width="96"
   height="96"
   viewBox="0 0 96 96"
   xml:space="preserve"
   sodipodi:docname="soda.svg"
   inkscape:version="1.0.2-2 (e86c870879, 2021-01-15)"><metadata
   id="metadata49"><rdf:RDF><cc:Work
       rdf:about=""><dc:format>image/svg+xml</dc:format><dc:type
         rdf:resource="http://purl.org/dc/dcmitype/StillImage" /><dc:title></dc:title></cc:Work></rdf:RDF></metadata><defs
   id="defs47" /><sodipodi:namedview
   pagecolor="#ffffff"
   bordercolor="#666666"
   borderopacity="1"
   objecttolerance="10"
   gridtolerance="10"
   guidetolerance="10"
   inkscape:pageopacity="0"
   inkscape:pageshadow="2"
   inkscape:window-width="1366"
   inkscape:window-height="705"
   id="namedview45"
   showgrid="false"
   inkscape:zoom="3.3868041"
   inkscape:cx="103.68937"
   inkscape:cy="46.981878"
   inkscape:window-x="-8"
   inkscape:window-y="-8"
   inkscape:window-maximized="1"
   inkscape:current-layer="g10" />
   <link xmlns="http://www.w3.org/1999/xhtml" rel="stylesheet" href="svg.css" type="text/css"/>
<g
   id="g12"
   transform="matrix(0.13407198,0,0,0.10799865,-11.588359,0)">
	<g
   id="g10">
		<path
   d="m 657.55,257 h -426.1 c -14.1,0 -25.4,11.8 -24.7,26 l 12.3,216.801 C 235.25,490.1 252.25,482 270.75,476 c 34.2,-11.199 70.8,-13.5 106.1,-6.5 29.801,5.9 57.5,20.801 82.801,37.1 22.6,14.6 45.3,32.801 71.5,40.4 29.6,8.6 57.8,3.199 85.899,-7.6 18.4,-8.4 35.8,-19 52.3,-30.701 L 682.15,283.1 c 0.8,-14.2 -10.5,-26.1 -24.6,-26.1 z"
   id="path2"
   style="fill:#ffffff;fill-opacity:1" />
		<path
   d="M 519.15,648.699 C 489.05,642.9 460.95,628 435.35,611.6 c -20.5,-13.199 -40.5,-27.4 -62.6,-37.799 -7.7,-2.9 -15.6,-5.102 -23.7,-6.701 -8.6,-0.699 -17.2,-0.6 -25.7,0.201 -11.5,2.1 -22.8,5.299 -33.699,9.398 C 276.35,582.9 263.75,590.4 251.95,599 c -9.1,7.4 -17.7,15.4 -25.9,23.801 l 13.7,242.699 c 0.7,13.1 11.5,23.4 24.7,23.4 h 360.1 c 13.2,0 24,-10.301 24.7,-23.4 l 13.3,-235.9 c -10.7,4.801 -21.7,9 -32.899,12.5 -35.801,11.099 -73.601,13.599 -110.501,6.599 z"
   id="path4"
   style="fill:#ffffff;fill-opacity:1" />
		<path
   d="m 490.65,50.6 h 154 c 13.8,0 25.3,-11.5 25.3,-25.3 0,-13.8 -11.5,-25.3 -25.3,-25.3 0,0 -179.2,0 -179.4,0 -13.1,0 -25.3,11.6 -25.3,25.3 v 96.3 h 50.7 z"
   id="path6"
   style="fill:#ffffff;fill-opacity:1" />
		<path
   d="m 681.65,146.6 h -191 -50.7 -232.6 c -23.5,0 -42.6,19.1 -42.6,42.6 0,23.5 19.1,42.6 42.6,42.6 h 474.2 c 23.5,0 42.601,-19.1 42.601,-42.6 0,-23.5 -19.001,-42.6 -42.501,-42.6 z"
   id="path8"
   style="fill:#ffffff;fill-opacity:1" />
	</g>
</g>
<g
   id="g14">
</g>
<g
   id="g16">
</g>
<g
   id="g18">
</g>
<g
   id="g20">
</g>
<g
   id="g22">
</g>
<g
   id="g24">
</g>
<g
   id="g26">
</g>
<g
   id="g28">
</g>
<g
   id="g30">
</g>
<g
   id="g32">
</g>
<g
   id="g34">
</g>
<g
   id="g36">
</g>
<g
   id="g38">
</g>
<g
   id="g40">
</g>
<g
   id="g42">
</g>
</svg>
