<?xml version="1.0" encoding="UTF-8" standalone="no"?>
<svg
   xmlns:dc="http://purl.org/dc/elements/1.1/"
   xmlns:cc="http://creativecommons.org/ns#"
   xmlns:rdf="http://www.w3.org/1999/02/22-rdf-syntax-ns#"
   xmlns:svg="http://www.w3.org/2000/svg"
   xmlns="http://www.w3.org/2000/svg"
   xmlns:sodipodi="http://sodipodi.sourceforge.net/DTD/sodipodi-0.dtd"
   xmlns:inkscape="http://www.inkscape.org/namespaces/inkscape"
   id="Layer_1"
   enable-background="new 0 0 512 512"
   height="96"
   viewBox="0 0 96 96"
   width="96"
   version="1.1"
   sodipodi:docname="teapot.svg"
   inkscape:version="1.0.2-2 (e86c870879, 2021-01-15)">
  <metadata
     id="metadata21">
    <rdf:RDF>
      <cc:Work
         rdf:about="">
        <dc:format>image/svg+xml</dc:format>
        <dc:type
           rdf:resource="http://purl.org/dc/dcmitype/StillImage" />
        <dc:title />
      </cc:Work>
    </rdf:RDF>
  </metadata>
  <defs
     id="defs19" />
  <sodipodi:namedview
     pagecolor="#ffffff"
     bordercolor="#666666"
     borderopacity="1"
     objecttolerance="10"
     gridtolerance="10"
     guidetolerance="10"
     inkscape:pageopacity="0"
     inkscape:pageshadow="2"
     inkscape:window-width="1366"
     inkscape:window-height="705"
     id="namedview17"
     showgrid="false"
     inkscape:zoom="3.3868041"
     inkscape:cx="60.342079"
     inkscape:cy="53.124457"
     inkscape:window-x="-8"
     inkscape:window-y="-8"
     inkscape:window-maximized="1"
     inkscape:current-layer="g14"
     inkscape:document-rotation="0" />
   <link xmlns="http://www.w3.org/1999/xhtml" rel="stylesheet" href="svg.css" type="text/css"/>
  <g
     id="g14"
     transform="scale(0.1875)">
    <path
       d="m 122.709,338.487 c 1.038,1.267 2.909,1.465 4.178,0.429 C 141.779,326.766 160.497,320 180,320 h 20 c 13.275,0 23.999,10.776 24,24.051 0.002,19.892 1.176,33.904 -6.259,51.792 -0.822,1.977 0.623,4.157 2.763,4.157 h 137.443 c 0.754,0 1.484,-0.279 2.039,-0.79 6.062,-5.579 11.565,-11.755 16.411,-18.429 1.445,-1.99 0.04,-4.781 -2.42,-4.781 H 264.272 c -4.262,0 -7.982,-3.218 -8.255,-7.471 C 255.718,363.869 259.405,360 264,360 h 122.658 c 1.182,0 2.265,-0.689 2.744,-1.769 2.911,-6.555 5.232,-13.34 6.948,-20.301 C 401.228,318.317 400,318.6 400,184.004 400,170.748 389.255,160 375.999,160 H 136.003 C 122.747,160 112,170.747 112,184.003 c 0,129.553 -0.62,130.904 1.63,144.042 0.109,0.637 0.427,1.22 0.897,1.665 2.908,2.75 5.645,5.682 8.182,8.777 z"
       id="path2"
       style="fill:#ffffff;fill-opacity:1" />
    <path
       d="m 496,280 c 0,-46.21 -32.831,-84.899 -76.385,-93.979 -1.863,-0.388 -3.615,1.041 -3.615,2.944 v 43.702 c 0,1.209 0.719,2.318 1.842,2.766 31.789,12.682 40.526,54.061 16.108,78.507 -4.991,4.991 -10.891,8.744 -17.321,11.106 -1.065,0.391 -1.833,1.313 -1.987,2.437 -2.012,14.684 -6.554,29.719 -13.847,44.025 -1.042,2.043 0.481,4.479 2.772,4.369 C 458.059,373.266 496,329.517 496,280 Z"
       id="path4"
       style="fill:#ffffff;fill-opacity:1" />
    <path
       d="m 77.437,400 c 2.673,0 4.011,-3.231 2.121,-5.121 L 58.34,373.66 c -3.12,-3.13 -3.12,-8.19 0,-11.32 3.13,-3.12 8.19,-3.12 11.32,0 l 36.781,36.781 c 0.563,0.563 1.326,0.879 2.121,0.879 h 16.38 c 1.706,0 3.062,-1.423 3.004,-3.128 C 126.371,351.008 90.227,320 50,320 H 24 c -4.418,0 -8,3.582 -8,8 v 26 c 0,16.635 5.235,32.063 14.146,44.741 0.559,0.795 1.482,1.259 2.454,1.259 z"
       id="path6"
       style="fill:#ffffff;fill-opacity:1" />
    <path
       d="m 162.563,400 h 33.44 c 1.048,0 2.031,-0.542 2.567,-1.442 11.072,-18.616 9.43,-33.957 9.431,-54.578 0,-4.41 -3.59,-7.98 -8,-7.98 h -20 c -16.64,0 -32.58,6.081 -44.917,16.941 -1.038,0.913 -1.329,2.395 -0.717,3.634 4.071,8.248 6.968,17.179 8.462,26.57 0.384,2.411 3.348,3.359 5.074,1.633 l 6.438,-6.438 c 3.13,-3.12 8.19,-3.12 11.32,0 3.12,3.13 3.12,8.19 0,11.32 l -5.219,5.219 c -1.891,1.89 -0.552,5.121 2.121,5.121 z"
       id="path8"
       style="fill:#ffffff;fill-opacity:1" />
    <path
       d="m 176,141.33334 h 56 c 8.822,0 16,-3.48867 16,5.33333 0,4.418 3.582,8 8,8 4.418,0 18.66667,-3.582 18.66667,-8 0,-17.645 -25.02167,-32 -42.66667,-32 h -56 c -4.411,0 -8,-3.589 -8,-8 0,-4.411 3.589,-8.000003 8,-8.000003 H 304 C 317.233,98.666667 338.66667,77.233 338.66667,64 338.66667,50.767 317.233,29.333333 304,29.333333 H 240 C 222.355,29.333333 208,25.645 208,8 c 0,-4.418 -3.582,-8 -8,-8 -4.418,0 -18.66667,3.582 -18.66667,8 0,26.467 32.19967,48 58.66667,48 h 64 c 4.411,0 8,3.589 8,8 0,4.411 -3.589,8 -8,8 H 176 c -13.233,0 -34.66667,10.767 -34.66667,24 0,13.233 21.43367,45.33334 34.66667,45.33334 z"
       id="path10"
       sodipodi:nodetypes="sssssssssssssssssssssss"
       style="fill:#ffffff;fill-opacity:1" />
    <path
       d="M 504,416 H 8 c -4.425,0 -8.002,3.597 -8,8.021 C 0.012,454.892 25.127,480 56,480 h 63.728 c 4.262,0 7.982,3.218 8.255,7.471 0.299,4.66 -3.388,8.529 -7.983,8.529 H 78.743 c -2.714,0 -4.045,3.329 -2.065,5.185 C 83.827,507.89 93.443,512 104,512 h 304 c 10.558,0 20.154,-4.043 27.359,-10.812 1.979,-1.859 0.652,-5.188 -2.063,-5.188 H 272.272 c -4.262,0 -7.982,-3.218 -8.255,-7.471 C 263.718,483.869 267.405,480 272,480 h 184 c 30.91,0 55.986,-25.008 56,-55.975 0.002,-4.426 -3.574,-8.025 -8,-8.025 z"
       id="path12"
       style="fill:#ffffff;fill-opacity:1" />
  </g>
</svg>
